<svg width="146" height="32" viewBox="0 0 146 32" fill="none" xmlns="http://www.w3.org/2000/svg">
<path d="M138.231 18.8938H136.411C136.116 18.8938 135.92 18.5494 136.067 18.3034L140.64 9.34851L136.018 0.590432C135.87 0.295216 136.067 0 136.362 0H138.182C139.853 0 140.984 0.688838 141.722 2.01731L146 9.39772L141.771 16.7781C141.033 18.0574 139.952 18.8938 138.231 18.8938Z" fill="#A9BE00"/>
<path d="M107.007 9.34863C105.827 9.34863 105.089 9.39784 104.499 9.49624C103.073 9.69305 101.992 12.3008 102.582 12.8912C102.778 12.9896 103.073 12.9896 103.516 12.8912C104.204 12.7436 105.483 12.5468 107.253 12.5468C109.761 12.5468 111.433 13.0388 111.433 15.3022V17.0735H107.499C103.073 17.0735 100.271 18.5003 100.271 22.5842C100.271 26.4712 102.877 28.1933 107.45 28.1933C112.711 28.1933 114.973 26.3728 114.973 22.3381V15.3514C115.022 10.7755 111.777 9.34863 107.007 9.34863ZM111.383 22.2397C111.383 24.6999 109.662 25.0935 107.4 25.0935C105.581 25.0935 103.909 24.7491 103.909 22.5842C103.909 20.7145 105.089 19.9764 107.499 19.9764H111.383V22.2397Z" fill="#293189"/>
<path d="M23.0702 9.29932C21.8901 9.29932 21.1525 9.34852 20.5624 9.44693C19.1364 9.64374 18.0547 12.2515 18.6447 12.8419C18.8414 12.9403 19.1364 12.9403 19.579 12.8419C20.2674 12.6943 21.5459 12.4975 23.3161 12.4975C25.8238 12.4975 27.4957 12.9895 27.4957 15.302V17.0733H23.6111C19.1856 17.0733 16.3828 18.5002 16.3828 22.584C16.3828 26.4711 18.9889 28.2424 23.5619 28.2424C28.8233 28.2424 31.0853 26.4219 31.0853 22.3872V15.302C31.0853 10.7262 27.8399 9.29932 23.0702 9.29932ZM27.4465 22.2396C27.4465 24.749 25.7255 25.0934 23.4636 25.0934C21.6442 25.0934 19.9724 24.749 19.9724 22.584C19.9724 20.7143 21.1525 19.9763 23.5619 19.9763H27.4465V22.2396Z" fill="#293189"/>
<path d="M21.7915 4.08386C20.8081 4.08386 19.9721 4.7727 19.7263 5.65835C19.6279 6.00277 19.6279 6.79001 19.6279 6.79001C19.6279 7.03603 19.8246 7.28204 20.1197 7.28204H27.3479C28.3314 7.28204 29.1673 6.5932 29.4132 5.70755C29.5607 5.26473 29.5115 4.57589 29.5115 4.57589C29.5115 4.32988 29.3148 4.08386 29.0198 4.08386H21.7915Z" fill="#293189"/>
<path d="M62.1123 21.1572C62.1123 25.6346 64.5217 28.2424 69.8815 28.2424H69.9307C75.2904 28.2424 77.6998 25.6346 77.6998 21.1572V12.2515C77.6998 10.8246 76.5689 9.69293 75.1429 9.69293H74.5528C74.2578 9.69293 74.0119 9.93894 74.0119 10.2342V21.1572C74.0119 23.4697 73.2744 24.749 69.9307 24.749C66.587 24.749 65.8494 23.4697 65.8494 21.1572V12.2515C65.8494 11.1198 65.0626 10.1358 64.03 9.79134C63.5875 9.64373 62.7515 9.69293 62.7515 9.69293C62.4565 9.69293 62.2106 9.93894 62.2106 10.2342L62.1123 21.1572Z" fill="#293189"/>
<path d="M57.8343 9.69281C57.8343 9.69281 57.1459 9.59441 56.4575 9.79122C55.3265 10.0864 54.5398 11.0705 54.4906 12.2022V21.9935C54.4906 26.8154 52.8188 28.5375 51.6386 29.5707C51.2944 29.8659 50.8027 30.3088 50.8027 30.3088C50.6552 30.5056 50.7535 30.8008 50.9994 30.9976L51.4911 31.3912C51.6878 31.5388 51.8845 31.6864 52.1304 31.7848C53.2121 32.2277 54.4906 31.9816 55.2774 31.096C55.2774 31.096 56.0149 30.358 56.2608 29.9151C57.4901 28.1438 58.4244 25.7821 58.4244 21.7967V12.3498V10.2832C58.4244 9.93883 58.1293 9.69281 57.8343 9.69281Z" fill="#293189"/>
<path d="M34.1826 20.37V17.2211C34.1826 12.104 36.9363 9.34863 42.591 9.34863C48.3933 9.34863 50.9011 11.9564 50.9011 17.2211V20.37C50.9011 25.4379 48.1475 28.2425 42.591 28.2425C36.7396 28.2425 34.1826 25.6347 34.1826 20.37ZM47.1149 17.2211C47.1149 14.1705 46.0823 12.842 42.5419 12.842C39.0015 12.842 37.9197 14.1705 37.9197 17.2211V20.37C37.9197 23.4206 38.9523 24.6999 42.5419 24.6999C46.0823 24.6999 47.1149 23.4206 47.1149 20.37V17.2211Z" fill="#293189"/>
<path d="M97.4184 2.85379C97.4184 2.55858 97.1725 2.31257 96.8775 2.31257C96.8775 2.31257 96.1399 2.21416 95.5498 2.41097C94.468 2.75539 93.6813 3.69024 93.6813 4.87111V11.7595C92.6978 10.185 90.9276 9.39776 88.3707 9.39776C83.306 9.39776 80.749 12.0547 80.749 17.3686V20.4684C80.749 25.6839 83.5027 28.2916 89.1083 28.2916C94.3697 28.2916 97.4675 25.7331 97.4675 20.4684V16.1877V2.85379H97.4184ZM89.0591 24.749C85.4204 24.749 84.4861 23.4697 84.4861 20.4192V17.2702C84.4861 14.2196 85.5187 12.8911 89.0591 12.8911C92.5995 12.8911 93.6813 14.1704 93.6813 17.221V18.205V20.37C93.7304 23.4205 92.6978 24.749 89.0591 24.749Z" fill="#293189"/>
<path d="M0.204942 14.3181C0.204942 17.1719 1.58176 18.3035 3.84367 19.2876L7.77744 21.0589C9.54763 21.8461 10.1377 22.2889 10.1377 23.273C10.1377 24.5031 9.15425 24.8475 6.74482 24.8475C6.59731 24.8475 5.66304 24.7983 5.66304 24.7983C2.95858 24.6999 0.696663 23.8142 0.696663 23.8142C0.647491 23.8142 0.40163 23.7158 0.204942 23.8634C-0.434294 24.5031 0.499975 27.5536 1.92596 27.8981C1.92596 27.8981 2.86023 28.0457 3.49947 28.1441C3.49947 28.1441 6.10559 28.3409 6.40062 28.3409C11.5637 28.3409 13.7764 26.7172 13.7764 23.2238C13.7764 20.3208 12.3013 19.0908 9.89184 18.0575L5.66304 16.237C4.43374 15.6958 3.94202 15.253 3.94202 14.3673C3.94202 13.2848 4.72877 12.8912 7.1382 12.8912C8.66253 12.8912 9.99018 13.088 10.9244 13.3341C11.1703 13.4325 12.2029 13.8261 12.5471 13.6293C13.1864 13.088 12.3996 10.1851 10.9736 9.79146C10.6294 9.64385 8.90839 9.34863 7.18737 9.34863C2.27017 9.34863 0.204942 10.9723 0.204942 14.3181Z" fill="#293189"/>
<path d="M118.316 14.3181C118.316 17.1719 119.693 18.3035 121.955 19.2876L125.889 21.0589C127.659 21.8461 128.249 22.2889 128.249 23.273C128.249 24.5031 127.266 24.8475 124.856 24.8475C124.709 24.8475 123.774 24.7983 123.774 24.7983C121.07 24.6999 118.808 23.8142 118.808 23.8142C118.759 23.8142 118.513 23.7158 118.316 23.8634C117.677 24.5031 118.611 27.5536 120.037 27.8981C120.037 27.8981 120.972 28.0457 121.611 28.1441C121.611 28.1441 124.217 28.2917 124.512 28.2917C129.675 28.2917 131.888 26.7172 131.888 23.1746C131.888 20.2716 130.413 19.0416 128.003 18.0083L123.774 16.1878C122.545 15.6466 122.053 15.2038 122.053 14.3181C122.053 13.2356 122.84 12.842 125.25 12.842C126.774 12.842 128.102 13.0388 129.036 13.2848C129.282 13.3833 130.314 13.7769 130.658 13.5801C131.298 13.0388 130.511 10.1359 129.085 9.74226C128.741 9.64385 127.02 9.34863 125.299 9.34863C120.431 9.34863 118.316 10.9723 118.316 14.3181Z" fill="#293189"/>
</svg>
